<svg xmlns="http://www.w3.org/2000/svg" width="20" height="21" viewBox="0 0 20 21"><path d="M6.71,20.884a2.647,2.647,0,1,1,2.632-2.647A2.643,2.643,0,0,1,6.71,20.884Zm0-3.261a0.614,0.614,0,1,0,.635.613A0.625,0.625,0,0,0,6.71,17.623Zm9.8,3.261a2.647,2.647,0,1,1,2.631-2.647A2.643,2.643,0,0,1,16.51,20.884Zm0-3.261a0.614,0.614,0,1,0,.635.613A0.625,0.625,0,0,0,16.51,17.623Zm-0.524-2.445H7.322a2.675,2.675,0,0,1-2.623-2.3L3.458,3.489a0.629,0.629,0,0,0-.629-0.538H0.993a1.017,1.017,0,0,1,0-2.034H2.83a2.647,2.647,0,0,1,2.607,2.3L5.671,4.993H18.96a0.992,0.992,0,0,1,.773.373,1.035,1.035,0,0,1,.2.847l-1.372,6.838A2.634,2.634,0,0,1,15.987,15.178Zm-0.032-2.034a0.623,0.623,0,0,0,.655-0.5l1.127-5.62H5.94l0.738,5.58a0.629,0.629,0,0,0,.63.538h8.646Z"/></svg>
