<svg xmlns="http://www.w3.org/2000/svg" width="13.71" height="13.71" viewBox="0 0 13.71 13.71"><path d="M12.79,3.42a6.62,6.62,0,0,1,.92,3.44,6.64,6.64,0,0,1-.92,3.44,6.76,6.76,0,0,1-2.49,2.49,6.64,6.64,0,0,1-3.44.92,6.62,6.62,0,0,1-3.44-.92A6.82,6.82,0,0,1,0,6.86,6.71,6.71,0,0,1,.92,3.42,6.67,6.67,0,0,1,3.42.92,6.71,6.71,0,0,1,6.86,0a6.82,6.82,0,0,1,5.93,3.42ZM11.06,9.29a4.66,4.66,0,0,0,.65-2.43,4.69,4.69,0,0,0-.65-2.44A4.85,4.85,0,0,0,9.29,2.65a4.89,4.89,0,0,0-4.87,0A5,5,0,0,0,2.65,4.42a4.89,4.89,0,0,0,0,4.87,4.85,4.85,0,0,0,1.77,1.77,4.69,4.69,0,0,0,2.44.65,4.66,4.66,0,0,0,2.43-.65A4.7,4.7,0,0,0,11.06,9.29ZM8,3.71v4A.27.27,0,0,1,7.71,8H4.86a.3.3,0,0,1-.21-.08.29.29,0,0,1-.08-.21V7.14a.28.28,0,0,1,.08-.2.26.26,0,0,1,.21-.08h2V3.71a.24.24,0,0,1,.08-.2.28.28,0,0,1,.2-.08h.57a.29.29,0,0,1,.21.08A.28.28,0,0,1,8,3.71Z"/></svg>