<svg xmlns="http://www.w3.org/2000/svg" width="16" height="16" viewBox="0 0 16 16">
  <path d="M13.777,15.964H7.7A2.178,2.178,0,0,1,5.6,13.72V7.253A2.178,2.178,0,0,1,7.7,5.009h6.076a2.178,2.178,0,0,1,2.1,2.244V13.72A2.178,2.178,0,0,1,13.777,15.964ZM7.7,6.623a0.616,0.616,0,0,0-.6.629V13.72a0.616,0.616,0,0,0,.6.63h6.076a0.616,0.616,0,0,0,.6-0.63V7.253a0.616,0.616,0,0,0-.6-0.629H7.7ZM3.65,10.934H2.975A2.178,2.178,0,0,1,.875,8.69V2.223a2.178,2.178,0,0,1,2.1-2.244H9.051a2.178,2.178,0,0,1,2.1,2.244V2.942a0.752,0.752,0,1,1-1.5,0V2.223a0.616,0.616,0,0,0-.6-0.629H2.975a0.616,0.616,0,0,0-.6.629V8.69a0.616,0.616,0,0,0,.6.63H3.65A0.809,0.809,0,0,1,3.65,10.934Z"/>
</svg>
