<svg height="512pt" viewBox="0 -76 512 512" width="512pt" xmlns="http://www.w3.org/2000/svg"><path d="m452 0h-392c-33.085938 0-60 26.914062-60 60v240c0 33.085938 26.914062 60 60 60h392c33.085938 0 60-26.914062 60-60v-240c0-33.085938-26.914062-60-60-60zm-392 40h392c11.027344 0 20 8.972656 20 20v20h-432v-20c0-11.027344 8.972656-20 20-20zm392 280h-392c-11.027344 0-20-8.972656-20-20v-180h432v180c0 11.027344-8.972656 20-20 20zm-10-55c0 13.808594-11.191406 25-25 25s-25-11.191406-25-25 11.191406-25 25-25 25 11.191406 25 25zm-70 0c0 13.808594-11.191406 25-25 25s-25-11.191406-25-25 11.191406-25 25-25 25 11.191406 25 25zm0 0"/></svg>