<svg xmlns="http://www.w3.org/2000/svg" width="13.71" height="13.71" viewBox="0 0 13.71 13.71"><path d="M13.71,6.86a4.45,4.45,0,0,1-.33,1.76,3,3,0,0,1-.88,1.2,4.27,4.27,0,0,1-1.17.67,4.09,4.09,0,0,1-1.29.24H9.75a1.62,1.62,0,0,1-1.27-.47,1.4,1.4,0,0,1-.29-.74,3.8,3.8,0,0,1-1.18,1,3.16,3.16,0,0,1-1.55.39,2.86,2.86,0,0,1-2.22-.85,3.4,3.4,0,0,1-.79-2.41A5.66,5.66,0,0,1,3,5.05,4.88,4.88,0,0,1,4.63,3.17a3.84,3.84,0,0,1,2.2-.69,2.93,2.93,0,0,1,1.38.32,2.33,2.33,0,0,1,.95.89l0-.17.1-.5a.18.18,0,0,1,.05-.11.1.1,0,0,1,.08-.05h1.05s.07,0,.12.1a.15.15,0,0,1,0,.14L9.54,8.58a2.1,2.1,0,0,0,0,.43.7.7,0,0,0,.11.46.55.55,0,0,0,.4.12,4.4,4.4,0,0,0,.51-.05,3.17,3.17,0,0,0,.65-.21,2.74,2.74,0,0,0,.69-.45,2.4,2.4,0,0,0,.51-.8,3.28,3.28,0,0,0,.21-1.22A5.63,5.63,0,0,0,11,2.7,5.63,5.63,0,0,0,6.86,1.14a5.42,5.42,0,0,0-2.22.46,5.66,5.66,0,0,0-3,3,5.42,5.42,0,0,0-.46,2.22A5.49,5.49,0,0,0,1.6,9.08,5.76,5.76,0,0,0,2.82,10.9a5.82,5.82,0,0,0,1.82,1.22,5.58,5.58,0,0,0,2.22.45,5.59,5.59,0,0,0,3.61-1.28.32.32,0,0,1,.22-.08.31.31,0,0,1,.19.11l.36.44a.29.29,0,0,1,.06.21.3.3,0,0,1-.1.2,7.12,7.12,0,0,1-2,1.14,6.77,6.77,0,0,1-2.31.4,6.69,6.69,0,0,1-2.66-.54A6.83,6.83,0,0,1,2,11.71,7.26,7.26,0,0,1,.54,9.52a6.82,6.82,0,0,1,0-5.32A6.83,6.83,0,0,1,4.2.54,6.69,6.69,0,0,1,6.86,0a6.72,6.72,0,0,1,5,1.89A6.73,6.73,0,0,1,13.71,6.86Zm-5-1.08A2.19,2.19,0,0,0,8.2,4.27a1.65,1.65,0,0,0-1.32-.55A2.34,2.34,0,0,0,5.78,4a3.37,3.37,0,0,0-1,.75A3.89,3.89,0,0,0,4.08,6a4.69,4.69,0,0,0-.27,1.61,2.28,2.28,0,0,0,.48,1.55,1.7,1.7,0,0,0,1.34.54,2.44,2.44,0,0,0,1.58-.59A3.9,3.9,0,0,0,8.3,7.59,4.59,4.59,0,0,0,8.68,5.78Z"/></svg>