<svg version="1.1" id="Слой_1" xmlns="http://www.w3.org/2000/svg" xmlns:xlink="http://www.w3.org/1999/xlink" x="0px" y="0px" viewBox="0 0 24 24" style="enable-background:new 0 0 24 24;" xml:space="preserve">
	<path fill-rule="evenodd" clip-rule="evenodd" d="M4.3,19.7C4.1,19.5,4,19.2,4,18.9l0.4-4.2c0-0.5,0.2-0.9,0.6-1.2l9-9c0.7-0.7,2-0.7,2.7,0.1l2.7,2.7
		c0.8,0.8,0.8,2,0.1,2.7l-9,9c-0.3,0.3-0.8,0.5-1.2,0.6L5.1,20c0,0-0.1,0-0.1,0C4.7,20,4.5,19.9,4.3,19.7z M16,10.7L13.3,8L15.3,6
		L18,8.7L16,10.7z M9.1,17.6l-3,0.3l0.3-3L12,9.3l2.7,2.7L9.1,17.6z"/>
</svg>
