<svg xmlns="http://www.w3.org/2000/svg" viewBox="0 0 28 28"><path d="M19.79,8.7H16l5.7-1.86a1.34,1.34,0,0,0,.52-2.23L17.91.41A1.3,1.3,0,0,0,17,0a1.34,1.34,0,0,0-1.3,1l-1.1,4.4a1.67,1.67,0,0,0-1.14,0L12.33,1A1.35,1.35,0,0,0,11,0a1.28,1.28,0,0,0-.93.39L5.82,4.59a1.34,1.34,0,0,0,.52,2.23L12.1,8.7H8.21a3.85,3.85,0,0,0-3.85,3.86V24.14A3.85,3.85,0,0,0,8.21,28H19.79a3.86,3.86,0,0,0,3.86-3.86V12.56A3.86,3.86,0,0,0,19.79,8.7Zm-2.5-6.2,2.85,2.8L16.28,6.57ZM7.86,5.28l2.85-2.8,1,4.07ZM13,26.07H8.21a1.92,1.92,0,0,1-1.92-1.93V16.42H13Zm0-11.58H6.29V12.56a1.93,1.93,0,0,1,1.92-1.93H13Zm8.68,9.65a1.92,1.92,0,0,1-1.93,1.93H15V16.42h6.75Zm0-9.65H15V10.63h4.82a1.93,1.93,0,0,1,1.93,1.93Z"/></svg>