<svg xmlns="http://www.w3.org/2000/svg" width="16" height="16" viewBox="0 0 16 16">
  <path d="M8.151,15.193A0.755,0.755,0,0,1,7.6,14.955L1.726,8.748a4.847,4.847,0,0,1,0-6.585A4.287,4.287,0,0,1,4.86.793h0a4.285,4.285,0,0,1,3.133,1.37L8.151,2.33,8.31,2.163A4.287,4.287,0,0,1,11.444.793h0a4.286,4.286,0,0,1,3.133,1.37h0a4.849,4.849,0,0,1,0,6.585L8.7,14.955A0.755,0.755,0,0,1,8.151,15.193ZM4.86,2.393a2.794,2.794,0,0,0-2.04.893,3.193,3.193,0,0,0,0,4.339l5.332,5.629,5.332-5.629a3.194,3.194,0,0,0,0-4.337l0.547-.562-0.548.56a2.794,2.794,0,0,0-2.04-.894h0A2.79,2.79,0,0,0,9.4,3.286L8.7,4.031a0.768,0.768,0,0,1-1.094,0L6.9,3.287a2.79,2.79,0,0,0-2.04-.894h0Z"/>
</svg>
