<svg xmlns="http://www.w3.org/2000/svg" viewBox="0 0 48 48"><path d="M36,46a2,2,0,0,1-2-2V39.62A6.48,6.48,0,0,0,27.76,33H11.24A6.48,6.48,0,0,0,5,39.62V44a2,2,0,0,1-4,0V39.62A10.47,10.47,0,0,1,11.24,29H27.76A10.47,10.47,0,0,1,38,39.62V44A2,2,0,0,1,36,46Zm-5.93-33A10.63,10.63,0,0,0,19.73,2.09,10.63,10.63,0,0,0,9.36,12.94,10.63,10.63,0,0,0,19.73,23.79,10.63,10.63,0,0,0,30.09,12.94Zm-4,0a6.62,6.62,0,0,1-6.36,6.85,6.63,6.63,0,0,1-6.37-6.85,6.63,6.63,0,0,1,6.37-6.85A6.62,6.62,0,0,1,26.09,12.94ZM47,43.91V39.48A10.78,10.78,0,0,0,39.25,29a2,2,0,0,0-1,3.86A6.77,6.77,0,0,1,43,39.48v4.43a2,2,0,0,0,4,0ZM30.89,23.45a10.61,10.61,0,0,0,7.45-7.83A10.93,10.93,0,0,0,30.89,2.45a2,2,0,1,0-1.05,3.86,6.9,6.9,0,0,1,4.61,8.36,6.61,6.61,0,0,1-4.61,4.92,2,2,0,0,0,.52,3.93A1.93,1.93,0,0,0,30.89,23.45Z"/></svg>