<svg xmlns="http://www.w3.org/2000/svg" viewBox="0 0 48 48"><path class="cls-1" d="M43.27,14.14,29.84,1.54A2,2,0,0,0,28.47,1H10.58A6.35,6.35,0,0,0,4.1,7.2V40.8A6.35,6.35,0,0,0,10.58,47H37.42a6.35,6.35,0,0,0,6.48-6.2V15.6A2,2,0,0,0,43.27,14.14ZM30.92,8,37.24,14H30.92Zm6.5,35H10.58A2.36,2.36,0,0,1,8.1,40.8V7.2A2.36,2.36,0,0,1,10.58,5H26.92V16a2,2,0,0,0,2,2h11V40.8A2.36,2.36,0,0,1,37.42,43ZM34,27H14a2,2,0,0,1-2-2h0a2,2,0,0,1,2-2H34a2,2,0,0,1,2,2h0A2,2,0,0,1,34,27Zm0,8H14a2,2,0,0,1-2-2h0a2,2,0,0,1,2-2H34a2,2,0,0,1,2,2h0A2,2,0,0,1,34,35ZM19,19H14a2,2,0,0,1-2-2h0a2,2,0,0,1,2-2h5a2,2,0,0,1,2,2h0A2,2,0,0,1,19,19Z"/></svg>