<svg xmlns="http://www.w3.org/2000/svg" viewBox="0 0 48 48"><path d="M10,15a6,6,0,1,1,6-6A6,6,0,0,1,10,15Zm0-8a2,2,0,1,0,2,2A2,2,0,0,0,10,7Zm0,23a6,6,0,1,1,6-6A6,6,0,0,1,10,30Zm0-8a2,2,0,1,0,2,2A2,2,0,0,0,10,22Zm0,23a6,6,0,1,1,6-6A6,6,0,0,1,10,45Zm0-8a2,2,0,1,0,2,2A2,2,0,0,0,10,37ZM44,9h0a2,2,0,0,0-2-2H21a2,2,0,0,0-2,2h0a2,2,0,0,0,2,2H42A2,2,0,0,0,44,9Zm0,15h0a2,2,0,0,0-2-2H21a2,2,0,0,0-2,2h0a2,2,0,0,0,2,2H42A2,2,0,0,0,44,24Zm0,15h0a2,2,0,0,0-2-2H21a2,2,0,0,0-2,2h0a2,2,0,0,0,2,2H42A2,2,0,0,0,44,39Z"/></svg>