<svg xmlns="http://www.w3.org/2000/svg" width="22" height="17" viewBox="0 0 22 17"><path d="M20,8.18A.58.58,0,0,0,20,8V6a2.84,2.84,0,0,0-3-3H14V1c0-.55-.45-1,0-1H3C1.45,0,0,.45,0,2V13.11C0,13.71,1.29,15,2.89,15h.29a3,3,0,0,0,5.64,0h4.36a3,3,0,0,0,5.64,0H21a1,1,0,0,0,1-1V11A3,3,0,0,0,20,8.18ZM14,5h3a.87.87,0,0,1,1,1V8H14ZM6,15a1,1,0,1,1,1-1A1,1,0,0,1,6,15Zm10,0a1,1,0,1,1,1-1A1,1,0,0,1,16,15Zm4-2H18.82a3,3,0,0,0-5.64,0H8.82a3,3,0,0,0-5.64,0H2.89A.89.89,0,0,1,2,12.11V2H12V8H5a1,1,0,0,0,0,2H19a1,1,0,0,1,1,1Z"/></svg>