<svg xmlns="http://www.w3.org/2000/svg" width="20" height="19.64" viewBox="0 0 20 19.64"><path d="M6.73,19.64A2.61,2.61,0,1,1,9.36,17,2.62,2.62,0,0,1,6.73,19.64Zm0-3.21a.61.61,0,1,0,0,1.21.61.61,0,1,0,0-1.21Zm9.82,3.21A2.61,2.61,0,1,1,19.18,17,2.62,2.62,0,0,1,16.55,19.64Zm0-3.21a.61.61,0,1,0,.63.6A.62.62,0,0,0,16.55,16.43ZM16,14H7.34a2.68,2.68,0,0,1-2.63-2.27L3.47,2.53A.63.63,0,0,0,2.84,2H1A1,1,0,0,1,1,0H2.84A2.62,2.62,0,0,1,5.45,2.26L5.69,4H19a1,1,0,0,1,.77.37,1,1,0,0,1,.21.83l-1.37,6.72A2.64,2.64,0,0,1,16,14Zm0-2a.63.63,0,0,0,.66-.49L17.77,6H6L6.7,11.5a.63.63,0,0,0,.63.53H16Z"/></svg>