<svg xmlns="http://www.w3.org/2000/svg" width="12.57" height="12.57" viewBox="0 0 12.57 12.57"><path d="M12.57,9.93a2.94,2.94,0,0,1-.09.63,3.18,3.18,0,0,1-.19.61,2.36,2.36,0,0,1-1.08.95,3.52,3.52,0,0,1-1.67.45,3.71,3.71,0,0,1-.47,0,4.33,4.33,0,0,1-.51-.11l-.42-.13-.5-.18L7.21,12a7.88,7.88,0,0,1-1.57-.75A13.61,13.61,0,0,1,3.29,9.29,13.65,13.65,0,0,1,1.36,6.93,7.5,7.5,0,0,1,.62,5.37c0-.06-.08-.2-.16-.44s-.16-.4-.19-.5L.14,4A3.94,3.94,0,0,1,0,3.5,3.71,3.71,0,0,1,0,3,3.39,3.39,0,0,1,.46,1.37,2.29,2.29,0,0,1,1.4.28,3.18,3.18,0,0,1,2,.09,2.94,2.94,0,0,1,2.64,0a.44.44,0,0,1,.19,0c.11,0,.26.26.47.68q.11.17.27.48c.11.21.22.39.31.56l.28.48.16.23a3.3,3.3,0,0,1,.19.31A.62.62,0,0,1,4.57,3a.72.72,0,0,1-.25.44A3.71,3.71,0,0,1,3.76,4a5.11,5.11,0,0,0-.55.48A.64.64,0,0,0,3,4.85a.58.58,0,0,0,0,.2.78.78,0,0,0,.08.18l.12.22a1,1,0,0,1,.1.17A9.41,9.41,0,0,0,4.86,7.71,9,9,0,0,0,7,9.27l.17.1.21.13.18.07a.64.64,0,0,0,.2,0,.67.67,0,0,0,.41-.26,5.11,5.11,0,0,0,.48-.55,4.37,4.37,0,0,1,.49-.56A.74.74,0,0,1,9.54,8a.62.62,0,0,1,.26.06,3.27,3.27,0,0,1,.32.19l.22.16.48.28.56.31.49.27c.41.21.64.36.67.47A.44.44,0,0,1,12.57,9.93Z"/></svg>