<svg xmlns="http://www.w3.org/2000/svg" width="24" height="24" viewBox="0 0 24 24"><path d="M18.27,21.91H18a18.2,18.2,0,0,1-7.88-2.76A17.94,17.94,0,0,1,1.87,6,2.72,2.72,0,0,1,4.34,3H7.17A2.7,2.7,0,0,1,9.88,5.32a10,10,0,0,0,.55,2.17,2.68,2.68,0,0,1-.62,2.85l-.53.52A12.8,12.8,0,0,0,13,14.55l.55-.54a2.74,2.74,0,0,1,2.86-.6,10.34,10.34,0,0,0,2.21.54A2.7,2.7,0,0,1,21,16.67v2.54a2.71,2.71,0,0,1-2.71,2.7ZM7.19,5H4.58A.76.76,0,0,0,4,5.26a.7.7,0,0,0-.16.5,15.85,15.85,0,0,0,2.49,6.9,15.86,15.86,0,0,0,4.86,4.79,16.46,16.46,0,0,0,7,2.46h0a.8.8,0,0,0,.57-.21.7.7,0,0,0,.2-.49V16.63a.7.7,0,0,0-.62-.7,12.64,12.64,0,0,1-2.63-.65.75.75,0,0,0-.77.16l-1.09,1.08a1,1,0,0,1-1.2.16,14.69,14.69,0,0,1-5.54-5.47A1,1,0,0,1,7.31,10l1.1-1.08a.68.68,0,0,0,.15-.72A11.76,11.76,0,0,1,7.9,5.59.71.71,0,0,0,7.19,5Zm10.22,5.9a1,1,0,0,1-1-.81,3.24,3.24,0,0,0-2.61-2.56,1,1,0,0,1,.38-2A5.27,5.27,0,0,1,18.4,9.7a1,1,0,0,1-.79,1.18Zm3.45,0a1,1,0,0,1-1-.89,6.66,6.66,0,0,0-6-5.85A1,1,0,0,1,13,3a1,1,0,0,1,1.1-.88,8.66,8.66,0,0,1,7.74,7.62,1,1,0,0,1-.88,1.1Z"/></svg>
