<?xml version="1.0" encoding="utf-8"?>
<!-- Generator: Adobe Illustrator 18.1.1, SVG Export Plug-In . SVG Version: 6.00 Build 0)  -->
<svg version="1.1" xmlns="http://www.w3.org/2000/svg" xmlns:xlink="http://www.w3.org/1999/xlink" x="0px" y="0px"
	 viewBox="0 0 24 24" style="enable-background:new 0 0 24 24;" xml:space="preserve">
	<path d="M19,9h-1V4c0-0.6-0.4-1-1-1H7C6.4,3,6,3.4,6,4v5H5c-1.7,0-3,1.3-3,3v5c0,1.7,1.3,3,3,3h1v2c0,0.6,0.4,1,1,1h10
		c0.6,0,1-0.4,1-1v-2h1c1.7,0,3-1.3,3-3v-5C22,10.3,20.7,9,19,9z M8,5h8v4H8V5z M16,21H8v-5h8V21z M20,17c0,0.6-0.4,1-1,1h-1v-3
		c0-0.6-0.4-1-1-1H7c-0.6,0-1,0.4-1,1v3H5c-0.6,0-1-0.4-1-1v-5c0-0.6,0.4-1,1-1h14c0.6,0,1,0.4,1,1V17z"/>
</svg>
