<?xml version="1.0" encoding="utf-8"?>
<svg version="1.1" xmlns="http://www.w3.org/2000/svg" xmlns:xlink="http://www.w3.org/1999/xlink" x="0px" y="0px"
	 viewBox="0 0 24 24" style="enable-background:new 0 0 24 24;" xml:space="preserve">
	<path d="M6.5,15C7.9,15,9,16.1,9,17.5S7.9,20,6.5,20S4,18.9,4,17.5S5.1,15,6.5,15z M15,19c0-5.5-4.5-10-10-10c-0.6,0-1,0.4-1,1
		s0.4,1,1,1c4.4,0,8,3.6,8,8c0,0.6,0.4,1,1,1S15,19.6,15,19z M21,19c0-8.8-7.2-16-16-16C4.4,3,4,3.4,4,4s0.4,1,1,1
		c7.7,0,14,6.3,14,14c0,0.6,0.4,1,1,1S21,19.6,21,19z"/>
</svg>
