<svg xmlns="http://www.w3.org/2000/svg" viewBox="0 0 60 60"><path d="M58.92,19.51v6.35c0,1.58-.83,2.38-2.49,2.38h-53a2.62,2.62,0,0,1-1.76-.63A2,2,0,0,1,.92,26V19.51A2.46,2.46,0,0,1,1.6,17.7L7.27,12V5.47A2.51,2.51,0,0,1,9.76,3H50.09a2.39,2.39,0,0,1,1.75.74,2.41,2.41,0,0,1,.74,1.76V12l5.66,5.66A2.42,2.42,0,0,1,58.92,19.51ZM54.39,31.58a2.59,2.59,0,0,0-1.81-.74,2.41,2.41,0,0,0-1.76.74,2.38,2.38,0,0,0-.73,1.75V53.38H46.24V39.9A2,2,0,0,0,44,37.64H33c-1.58,0-2.38.75-2.38,2.26V53.38H9.76V33.33A2.39,2.39,0,0,0,9,31.58a2.39,2.39,0,0,0-1.75-.74,2.53,2.53,0,0,0-1.87.74,2.39,2.39,0,0,0-.74,1.75V56a2.31,2.31,0,0,0,.79,1.76,2.61,2.61,0,0,0,1.82.73H33a2.52,2.52,0,0,0,1.87-.73A2.41,2.41,0,0,0,35.59,56V42.74h5.89V56.1a2.21,2.21,0,0,0,.73,1.7,2.48,2.48,0,0,0,1.76.68h8.61a2.54,2.54,0,0,0,1.87-.73A2.4,2.4,0,0,0,55.18,56V33.33A2.29,2.29,0,0,0,54.39,31.58Zm-.56-11-5.1-5H11.12l-5.1,5v2.61H53.83ZM12.25,8.07v3.06H47.59V8.07ZM26.18,44.89a2.32,2.32,0,0,1-2.26,2.26H15.76a2.32,2.32,0,0,1-2.26-2.26V36.73a2.32,2.32,0,0,1,2.26-2.26h8.16a2.32,2.32,0,0,1,2.26,2.26Zm-8.26-2.15h3.85V38.88H17.92Z"/></svg>