<svg xmlns="http://www.w3.org/2000/svg" viewBox="0 0 24 24">
<path d="M7,2H3A1,1,0,0,0,2,3V7A1,1,0,0,0,3,8H7A1,1,0,0,0,8,7V3A1,1,0,0,0,7,2ZM6,6H4V4H6ZM7,9H3a1,1,0,0,0-1,1v4a1,1,0,0,0,1,1H7a1,1,0,0,0,1-1V10A1,1,0,0,0,7,9ZM6,13H4V11H6Zm1,3H3a1,1,0,0,0-1,1v4a1,1,0,0,0,1,1H7a1,1,0,0,0,1-1V17A1,1,0,0,0,7,16ZM6,20H4V18H6ZM21,2H10A1,1,0,0,0,9,3V7a1,1,0,0,0,1,1H21a1,1,0,0,0,1-1V3A1,1,0,0,0,21,2ZM20,6H11V4h9Zm1,3H10a1,1,0,0,0-1,1v4a1,1,0,0,0,1,1H21a1,1,0,0,0,1-1V10A1,1,0,0,0,21,9Zm-1,4H11V11h9Zm1,3H10a1,1,0,0,0-1,1v4a1,1,0,0,0,1,1H21a1,1,0,0,0,1-1V17A1,1,0,0,0,21,16Zm-1,4H11V18h9Z"/>
</svg>
